#!OML:ASF I:\Actors\actors\Patient Classification 1\Patient 1\Session 1\Subject1.ASF
:FULLY-SPECIFIED
:DEGREES
1405
root 0.797972 17.4593 9.0505 4.70273 0.737499 -9.73853
lowerback -6.09466 1.68803 8.78843
upperback -11.1316 2.29929 1.52657
thorax -8.1765 0.514778 -3.28836
lowerneck -8.6287 -5.03181 -2.96519
upperneck 37.9527 -9.55776 6.51948
head 15.2062 -3.70504 1.8105
rclavicle -3.97569e-015 3.49861e-014
rhumerus 3.14232 67.3886 -100.755
rradius 143.638
rwrist -35.8949
rhand -10.1951 -59.6292
rfingers 7.12502
rthumb 15.7957 -449.005
lclavicle -3.97569e-015 3.49861e-014
lhumerus -56.1591 -57.4687 137.253
lradius 91.9008
lwrist 72.1398
lhand -14.7464 11.3689
lfingers 7.12502
lthumb 11.4093 41.0385
rfemur 2.68126 22.3253 29.4769
rtibia 3.65774
rfoot -14.4413 -21.8067
rtoes 1.67047
lfemur 11.2203 -39.4607 -13.4861
ltibia -4.0792
lfoot -17.4102 45.5127
ltoes 1.06494
1406
root 0.798085 17.4577 9.0636 4.64494 0.687725 -9.72998
lowerback -6.16307 1.62265 8.72904
upperback -11.2058 2.21672 1.65122
thorax -8.23651 0.480491 -3.1211
lowerneck -8.66364 -4.95595 -3.20101
upperneck 38.3712 -9.42512 6.50035
head 15.4276 -3.67393 1.87237
rclavicle 1.88845e-015 -3.02153e-014
rhumerus 3.31222 67.6562 -100.563
rradius 143.679
rwrist -35.9564
rhand -10.5513 -60.0856
rfingers 7.12502
rthumb 15.4527 -449.488
lclavicle 1.88845e-015 -3.02153e-014
lhumerus -55.8472 -57.1243 137.009
lradius 91.8604
lwrist 72.0196
lhand -14.5864 11.3013
lfingers 7.12502
lthumb 11.5636 40.9623
rfemur 2.7875 22.3411 29.515
rtibia 3.69524
rfoot -14.5032 -21.7898
rtoes 1.74308
lfemur 11.4447 -39.5007 -13.6479
ltibia -4.12274
lfoot -17.5876 45.591
ltoes 1.21348
1407
root 0.797468 17.4572 9.07585 4.60024 0.62598 -9.67585
lowerback -6.1764 1.50275 8.54444
upperback -11.2935 2.07421 1.85292
thorax -8.35291 0.428187 -2.80385
lowerneck -8.77246 -4.82763 -3.36902
upperneck 38.8844 -9.15745 6.28268
head 15.6884 -3.59868 1.85928
rclavicle 2.78299e-015 -6.44062e-014
rhumerus 3.40794 68.0898 -100.417
rradius 143.723
rwrist -36.0672
rhand -10.8381 -60.4426
rfingers 7.12502
rthumb 15.1764 -449.866
lclavicle 2.78299e-015 -6.44062e-014
lhumerus -55.2743 -56.637 136.619
lradius 91.7905
lwrist 71.922
lhand -14.5579 11.1874
lfingers 7.12502
lthumb 11.5911 40.8468
rfemur 2.89915 22.4373 29.5096
rtibia 3.69845
rfoot -14.5775 -21.8387
rtoes 1.80861
lfemur 11.6721 -39.6102 -13.8743
ltibia -4.16839
lfoot -17.7054 45.7327
ltoes 1.21182
1408
root 0.796382 17.4565 9.08797 4.56006 0.575483 -9.62606
lowerback -6.25219 1.42328 8.44564
upperback -11.3346 1.96924 1.9631
thorax -8.37155 0.38807 -2.62983
lowerneck -8.84583 -4.75029 -3.39249
upperneck 39.275 -8.96801 6.01383
head 15.8752 -3.54761 1.78353
rclavicle -1.86858e-014 -8.15017e-015
rhumerus 3.72162 68.4061 -100.151
rradius 143.732
rwrist -36.1361
rhand -11.0168 -60.724
rfingers 7.12502
rthumb 15.0043 -629.84
lclavicle -1.86858e-014 -8.15017e-015
lhumerus -54.8231 -56.3358 136.258
lradius 91.7399
lwrist 71.8382
lhand -14.7391 10.9252
lfingers 7.12502
lthumb 11.4163 40.5944
rfemur 3.0007 22.4723 29.4958
rtibia 3.69531
rfoot -14.6342 -21.825
rtoes 1.96051
lfemur 11.8383 -39.5979 -14.0357
ltibia -4.20659
lfoot -17.6571 45.769
ltoes 0.98734
1409
root 0.791449 17.46 9.10264 4.63729 0.460599 -9.23692
lowerback -6.53209 1.45737 8.04507
upperback -11.3656 1.98057 1.82025
thorax -8.2386 0.423473 -2.55474
lowerneck -8.9038 -4.75974 -3.32109
upperneck 39.5284 -9.00449 5.95443
head 16.0174 -3.55358 1.74233
rclavicle 6.85807e-015 3.10104e-014
rhumerus 4.31805 68.3592 -99.6677
rradius 143.742
rwrist -36.1914
rhand -11.1174 -61.0028
rfingers 7.12502
rthumb 14.9074 -629.554
lclavicle 6.85807e-015 3.10104e-014
lhumerus -54.833 -56.3646 136.186
lradius 91.7684
lwrist 71.7983
lhand -15.177 10.7471
lfingers 7.12502
lthumb 10.994 40.4392
rfemur 2.96652 22.6493 29.0459
rtibia 3.68414
rfoot -14.6885 -21.8914
rtoes 2.11973
lfemur 11.8446 -39.6796 -14.5212
ltibia -4.16265
lfoot -17.8489 45.9231
ltoes 1.21573
1410
root 0.786771 17.4639 9.11671 4.73964 0.361209 -8.89173
lowerback -6.76961 1.51421 7.68776
upperback -11.43 2.03086 1.67124
thorax -8.16484 0.471415 -2.5104
lowerneck -8.88719 -4.77692 -3.19289
upperneck 39.6408 -9.03814 5.8616
head 16.0611 -3.55884 1.6761
rclavicle -2.84262e-014 3.1408e-014
rhumerus 4.83835 68.1675 -99.223
rradius 143.753
rwrist -36.3319
rhand -11.1043 -61.2125
rfingers 7.12502
rthumb 14.92 -629.345
lclavicle -2.84262e-014 3.1408e-014
lhumerus -55.0087 -56.4218 136.295
lradius 91.8222
lwrist 71.8016
lhand -15.4992 10.7154
lfingers 7.12502
lthumb 10.6832 40.4238
rfemur 2.90427 22.8412 28.6421
rtibia 3.67208
rfoot -14.7158 -22.0069
rtoes 2.0078
lfemur 11.7499 -39.674 -14.8651
ltibia -4.10336
lfoot -18.0725 45.9654
ltoes 1.63673
